<svg data-v-0dd9719b="" version="1.0" xmlns="http://www.w3.org/2000/svg" xmlns:xlink="http://www.w3.org/1999/xlink" width="100%" height="100%" viewBox="0 0 340.000000 250.000000" preserveAspectRatio="xMidYMid meet" color-interpolation-filters="sRGB" style="margin: auto;"> <rect data-v-0dd9719b="" x="0" y="0" width="100%" height="100%" fill="#fff" fill-opacity="1" class="background"></rect> <rect data-v-0dd9719b="" x="0" y="0" width="100%" height="100%" fill="url(#watermark)" fill-opacity="1" class="watermarklayer"></rect> <g data-v-0dd9719b="" fill="#00a5e3" class="icon-text-wrapper icon-svg-group iconsvg" transform="translate(49.48999786376953,95)"><g class="iconsvg-imagesvg" transform="translate(0,0)"><g><rect fill="#00a5e3" fill-opacity="0" stroke-width="2" x="0" y="0" width="60" height="60" class="image-rect"></rect> <svg x="0" y="0" width="60" height="60" filtersec="colorsb403248597" class="image-svg-svg primary" style="overflow: visible;"><svg xmlns="http://www.w3.org/2000/svg" viewBox="0.010002505034208298 0 150.1199951171875 150.1199951171875"><g><g><path d="M41.83 75.06A33.24 33.24 0 0 0 75 108.31a1.91 1.91 0 0 0 .59-.1 1.88 1.88 0 0 0 1.41-1.78V96a1.89 1.89 0 0 0-1.89-1.88A19 19 0 1 1 94.1 75a1.88 1.88 0 0 0 1.9 2h10.44a1.89 1.89 0 0 0 1.88-1.89 33.24 33.24 0 1 0-66.48 0z" fill="#00a5e3"></path><path d="M115 75.06a39.93 39.93 0 1 1-68.17-28.23 1.88 1.88 0 0 0 0-2.66l-7.39-7.39a1.89 1.89 0 0 0-2.66 0 54.15 54.15 0 1 0 76.59 0 1.89 1.89 0 0 0-2.67 0l-7.39 7.39a1.88 1.88 0 0 0 0 2.66A39.67 39.67 0 0 1 115 75.06z" fill="#00a5e3"></path><path d="M148.25 73.18h-10.46a1.89 1.89 0 0 0-1.88 1.89 60.84 60.84 0 1 1-60.85-60.85 1.88 1.88 0 0 0 1.88-1.88V1.88A1.88 1.88 0 0 0 75.06 0a75.06 75.06 0 1 0 75.07 75.06 1.89 1.89 0 0 0-1.88-1.88z" fill="#00a5e3"></path><path d="M75.07 41.82a33.28 33.28 0 0 0-33 29.2 109.63 109.63 0 0 0 14 3.38 19 19 0 0 1 38 0 109.58 109.58 0 0 0 14-3.37 33.28 33.28 0 0 0-33-29.21zM35.62 68.78a39.62 39.62 0 0 1 11.2-22 1.88 1.88 0 0 0 0-2.66l-7.39-7.39a1.89 1.89 0 0 0-2.66 0 53.84 53.84 0 0 0-14.4 25.91 110.36 110.36 0 0 0 13.25 6.14zM113.36 36.77a1.89 1.89 0 0 0-2.67 0l-7.39 7.39a1.88 1.88 0 0 0 0 2.66 39.62 39.62 0 0 1 11.2 22 109.92 109.92 0 0 0 13.29-6.11 53.79 53.79 0 0 0-14.43-25.94z" fill="#fff" opacity=".2"></path><path d="M75.06 0A75.17 75.17 0 0 0 4.21 50.32a110.75 110.75 0 0 0 12.13 8.83 61 61 0 0 1 58.72-44.93 1.88 1.88 0 0 0 1.88-1.88V1.88A1.88 1.88 0 0 0 75.06 0z" fill="#fff" opacity=".2"></path></g></g></svg></svg> <!----></g></g> <g transform="translate(67.00000381469727,1.9837493896484375)"><g data-gra="path-name" fill-rule="" class="tp-name iconsvg-namesvg" transform="translate(0,0)"><g transform="scale(1)"><g><path d="M31.72 0.36L13.41 0.36Q12.24 0.36 11.52-0.36 10.8-1.08 10.8-2.25L10.8-2.25 10.8-25.79 4.18-25.79Q2.56-25.79 2.56-27.45L2.56-27.45Q2.56-29.07 4.18-29.07L4.18-29.07 10.8-29.07 10.8-35.68Q10.8-37.39 12.51-37.39L12.51-37.39Q14.22-37.39 14.22-35.68L14.22-35.68 14.22-29.07 30.82-29.07 30.82-35.64Q30.82-37.39 32.58-37.39L32.58-37.39Q34.34-37.39 34.34-35.64L34.34-35.64 34.34-29.07 40.86-29.07Q42.48-29.07 42.48-27.45L42.48-27.45Q42.48-25.79 40.86-25.79L40.86-25.79 34.34-25.79 34.34-2.25Q34.34-1.08 33.62-0.36 32.89 0.36 31.72 0.36L31.72 0.36ZM15.16-2.92L15.16-2.92 29.88-2.92Q30.82-2.92 30.82-3.87L30.82-3.87 30.82-12.78 14.22-12.78 14.22-3.87Q14.22-2.92 15.16-2.92ZM14.22-25.79L14.22-16.06 30.82-16.06 30.82-25.79 14.22-25.79ZM50.94 2.21Q49.63 3.55 48.51 2.61L48.51 2.61Q47.16 1.48 48.78-0.22L48.78-0.22Q50.85-2.88 51.66-6.39L51.66-6.39Q52.2-8.87 52.2-12.33L52.2-12.33 52.2-14.45Q52.2-15.97 53.73-15.97L53.73-15.97Q55.26-15.97 55.26-14.45L55.26-14.45 55.26-12.29Q55.26-7.51 54.36-4.27L54.36-4.27Q53.33-0.54 50.94 2.21L50.94 2.21ZM67.59 3.38L67.59 3.38Q65.92 3.38 65.92 1.75L65.92 1.75 65.92-18.18 53.82-18.18Q52.42-18.18 52.42-19.62L52.42-19.62Q52.42-21.02 53.82-21.02L53.82-21.02 65.92-21.02 65.92-24.97 49.27-24.97Q47.97-24.97 47.97-26.28 47.97-27.58 49.27-27.58L49.27-27.58 65.92-27.58 65.92-31.41 53.82-31.41Q52.42-31.41 52.42-32.85L52.42-32.85Q52.42-34.24 53.82-34.24L53.82-34.24 65.92-34.24 65.92-36Q65.92-37.62 67.59-37.62L67.59-37.62Q69.21-37.62 69.21-36L69.21-36 69.21-34.24 80.46-34.24Q81.63-34.24 82.35-33.52 83.07-32.8 83.07-31.63L83.07-31.63 83.07-27.58 85.95-27.58Q87.25-27.58 87.25-26.28 87.25-24.97 85.95-24.97L85.95-24.97 83.07-24.97 83.07-20.79Q83.07-19.62 82.35-18.9 81.63-18.18 80.46-18.18L80.46-18.18 69.21-18.18 69.21 1.75Q69.21 3.38 67.59 3.38ZM82.26 3.01L82.26 3.01Q80.69 3.01 80.69 1.48L80.69 1.48 80.69-14.4Q80.69-15.93 82.26-15.93L82.26-15.93Q83.79-15.93 83.79-14.4L83.79-14.4 83.79 1.48Q83.79 3.01 82.26 3.01ZM60.21-3.19Q59.63-1.93 58.27-2.65L58.27-2.65Q57.6-3.01 57.47-3.42 57.33-3.82 57.64-4.46L57.64-4.46Q58.99-7.6 60.08-12.69L60.08-12.69Q60.39-14.17 61.76-13.9 63.13-13.63 62.86-12.29L62.86-12.29Q62.46-10.21 61.65-7.29L61.65-7.29Q60.98-5.08 60.21-3.19L60.21-3.19ZM76.41-3.06Q74.92-2.65 74.61-4.05L74.61-4.05Q74.34-5.22 73.62-7.92L73.62-7.92Q72.72-10.89 72.18-12.31 71.64-13.72 73.22-13.99L73.22-13.99Q74.38-14.26 74.88-13.09L74.88-13.09Q76.63-8.5 77.58-4.54L77.58-4.54Q77.72-3.87 77.44-3.55 77.17-3.24 76.41-3.06L76.41-3.06ZM69.21-24.97L69.21-21.02 78.62-21.02Q79.56-21.02 79.56-21.96L79.56-21.96 79.56-24.97 69.21-24.97ZM69.21-31.41L69.21-27.58 79.56-27.58 79.56-30.46Q79.56-31.41 78.62-31.41L78.62-31.41 69.21-31.41ZM120.24 3.42L120.24 3.42Q118.75 3.42 118.75 1.98L118.75 1.98 118.75-2.11 109.71-2.11Q108.41-2.11 108.41-3.46L108.41-3.46Q108.41-4.77 109.71-4.77L109.71-4.77 118.75-4.77 118.75-8.01 112.09-8.01Q110.84-8.01 110.84-9.27 110.84-10.53 112.09-10.53L112.09-10.53 118.75-10.53 118.75-13.41 111.69-13.41Q110.38-13.41 110.38-14.71 110.38-16.02 111.69-16.02L111.69-16.02 118.75-16.02 118.75-18.31Q118.75-19.75 120.24-19.75L120.24-19.75Q121.68-19.75 121.68-18.31L121.68-18.31 121.68-16.02 128.97-16.02Q130.28-16.02 130.28-14.71 130.28-13.41 128.97-13.41L128.97-13.41 121.68-13.41 121.68-10.53 128.47-10.53Q129.74-10.53 129.74-9.27 129.74-8.01 128.47-8.01L128.47-8.01 121.68-8.01 121.68-4.77 130.91-4.77Q132.21-4.77 132.21-3.46L132.21-3.46Q132.21-2.11 130.91-2.11L130.91-2.11 121.68-2.11 121.68 1.98Q121.68 3.42 120.24 3.42ZM104.13-5.85L96.17-5.85Q95-5.85 94.28-6.57 93.56-7.29 93.56-8.46L93.56-8.46 93.56-27.45Q93.56-28.71 94.81-28.71L94.81-28.71Q96.08-28.71 96.08-27.45L96.08-27.45 96.08-9.58Q96.08-8.64 97.02-8.64L97.02-8.64 98.73-8.64 98.73-35.82Q98.73-37.17 100.08-37.17L100.08-37.17Q101.43-37.17 101.43-35.82L101.43-35.82 101.43-8.64 103.36-8.64Q104.31-8.64 104.31-9.58L104.31-9.58 104.31-27.49Q104.31-28.71 105.53-28.71L105.53-28.71Q106.74-28.71 106.74-27.49L106.74-27.49 106.74-8.46Q106.74-7.29 106.02-6.57 105.3-5.85 104.13-5.85L104.13-5.85ZM110.03-17.41Q108.77-17.01 108.09-18L108.09-18Q107.06-19.48 108.9-20.02L108.9-20.02Q114.25-21.78 118.35-24.66L118.35-24.66Q115.97-26.82 114.34-29.47L114.34-29.47Q112.5-27.49 110.75-26.05L110.75-26.05Q109.75-25.24 108.77-26.05L108.77-26.05Q107.46-27.18 108.94-28.26L108.94-28.26Q113.44-31.72 116.1-36.54L116.1-36.54Q116.64-37.66 117.86-37.3L117.86-37.3Q119.38-36.9 118.71-35.55L118.71-35.55Q118.44-35.01 117.81-34.02L117.81-34.02 126.05-34.02Q127.48-34.02 127.96-33.19 128.43-32.35 127.8-30.87L127.8-30.87Q126.09-27.54 122.81-24.57L122.81-24.57Q126.63-22 131.22-20.65L131.22-20.65Q133.38-20.11 132.21-18.5L132.21-18.5Q131.44-17.46 130.09-17.86L130.09-17.86Q124.65-19.53 120.56-22.77L120.56-22.77Q115.92-19.44 110.03-17.41L110.03-17.41ZM120.51-26.32L120.51-26.32Q123.34-28.8 124.97-31.41L124.97-31.41 116.06-31.41Q117.86-28.57 120.51-26.32ZM169.74 2.25L150.84 2.25Q142.88 2.25 142.88-2.75L142.88-2.75Q142.88-4.32 143.78-5.63L143.78-5.63Q145.08-7.6 148.91-10.48L148.91-10.48Q153.41-13.9 161.95-19.13L161.95-19.13 143.78-19.13Q142.2-19.13 142.2-20.7 142.2-22.27 143.78-22.27L143.78-22.27 154.89-22.27 167.58-22.23 167.67-22.27Q168.25-22.41 169.29-21.64L169.29-21.64Q169.69-21.38 169.97-20.93L169.97-20.93Q170.24-20.43 169.83-20.16L169.83-20.16Q159.48-13.99 153.9-10.26L153.9-10.26Q149.18-7.06 147.47-5.26L147.47-5.26Q146.25-4 146.25-3.01L146.25-3.01Q146.25-1.03 150.62-1.03L150.62-1.03 170.06-1.03Q171.41-1.03 171.99-1.53L171.99-1.53Q172.71-2.16 173.03-3.78L173.03-3.78Q173.16-5.13 173.66-6.12L173.66-6.12Q174.33-7.33 175.23-7.02L175.23-7.02Q175.91-6.79 176.18-5.67L176.18-5.67Q176.35-4.77 176.26-3.78L176.26-3.78Q175.72-0.18 174.24 1.13L174.24 1.13Q172.89 2.25 169.74 2.25L169.74 2.25ZM149.81-25.52L149.81-25.52Q148.14-25.52 148.14-27.18L148.14-27.18 148.14-29.61 139.46-29.61Q137.88-29.61 137.88-31.23L137.88-31.23Q137.88-32.8 139.46-32.8L139.46-32.8 148.14-32.8 148.14-36Q148.14-37.66 149.81-37.66L149.81-37.66Q151.47-37.66 151.47-36L151.47-36 151.47-32.8 163.44-32.8 163.44-36Q163.44-37.66 165.1-37.66L165.1-37.66Q166.77-37.66 166.77-36L166.77-36 166.77-32.8 175-32.8Q176.58-32.8 176.58-31.23L176.58-31.23Q176.58-29.61 175-29.61L175-29.61 166.77-29.61 166.77-27.18Q166.77-25.52 165.1-25.52L165.1-25.52Q163.44-25.52 163.44-27.18L163.44-27.18 163.44-29.61 151.47-29.61 151.47-27.18Q151.47-25.52 149.81-25.52Z" transform="translate(-2.559999942779541, 37.65999984741211)"></path></g> <!----> <!----> <!----> <!----> <!----> <!----> <!----></g></g> <g data-gra="path-slogan" fill-rule="" class="tp-slogan iconsvg-slogansvg" fill="#00a5e3" transform="translate(42.66444778442383,47.08000183105469)"><!----> <!----> <g transform="scale(1, 1)"><g transform="scale(1)"><path d="M7.31-3.61L4.69-3.61L4.69-4.59L8.44-4.59L8.44 0L7.69 0L7.41-1.08Q6.42 0.09 4.59 0.14L4.59 0.14Q2.86 0.14 1.92-0.75L1.92-0.75Q0.52-2.06 0.56-4.36L0.56-4.36Q0.89-8.63 4.64-8.81L4.64-8.81Q7.83-8.63 8.30-6L8.30-6L7.17-6Q6.70-7.78 4.59-7.83L4.59-7.83Q1.92-7.64 1.78-4.31L1.78-4.31Q1.78-0.75 4.64-0.75L4.64-0.75Q5.67-0.75 6.42-1.31L6.42-1.31Q7.36-2.06 7.31-3.61L7.31-3.61ZM15.89 0L15.05-2.48L11.58-2.48L10.69 0L9.52 0L12.75-8.58L14.06-8.58L17.16 0L15.89 0ZM13.31-7.31L11.95-3.52L14.63-3.52L13.36-7.31L13.31-7.31ZM19.59-8.58L23.91-1.64L23.91-8.58L25.03-8.58L25.03 0L23.72 0L19.36-6.94L19.31-6.94L19.31 0L18.19 0L18.19-8.58L19.59-8.58ZM33.09-6.09L33.09-6.09L32.02-6.09Q31.92-7.73 29.86-7.83L29.86-7.83Q27.94-7.78 27.94-6.33L27.94-6.33Q27.94-5.39 28.97-5.25L28.97-5.25L31.41-4.69Q33.33-4.22 33.33-2.34L33.33-2.34Q33.28 0.05 29.95 0.14L29.95 0.14Q28.13 0.14 27.38-0.61L27.38-0.61Q26.44-1.31 26.48-2.77L26.48-2.77L27.61-2.77Q27.66-0.80 29.95-0.75L29.95-0.75Q32.20-0.80 32.25-2.20L32.25-2.20Q32.44-3.38 30.38-3.75L30.38-3.75L28.59-4.13Q26.77-4.64 26.77-6.19L26.77-6.19Q26.91-8.72 29.77-8.81L29.77-8.81Q33-8.81 33.09-6.09ZM40.45-3.19L40.45-8.58L41.63-8.58L41.63-3.05Q41.48 0.05 38.11 0.14L38.11 0.14Q34.97 0.05 34.83-2.86L34.83-2.86L34.83-8.58L36-8.58L36-3.19Q36.05-0.84 38.16-0.80L38.16-0.80Q40.45-0.84 40.45-3.19L40.45-3.19ZM52.27-3.89L48.05-3.89L48.05 0L46.88 0L46.88-8.58L52.83-8.58L52.83-7.59L48.05-7.59L48.05-4.92L52.27-4.92L52.27-3.89ZM55.31-1.03L60.47-1.03L60.47 0L54.14 0L54.14-8.58L60.38-8.58L60.38-7.59L55.31-7.59L55.31-4.92L60-4.92L60-3.89L55.31-3.89L55.31-1.03ZM63.38-8.58L67.69-1.64L67.69-8.58L68.81-8.58L68.81 0L67.50 0L63.14-6.94L63.09-6.94L63.09 0L61.97 0L61.97-8.58L63.38-8.58ZM77.02-3.61L74.39-3.61L74.39-4.59L78.14-4.59L78.14 0L77.39 0L77.11-1.08Q76.13 0.09 74.30 0.14L74.30 0.14Q72.56 0.14 71.63-0.75L71.63-0.75Q70.22-2.06 70.27-4.36L70.27-4.36Q70.59-8.63 74.34-8.81L74.34-8.81Q77.53-8.63 78-6L78-6L76.88-6Q76.41-7.78 74.30-7.83L74.30-7.83Q71.63-7.64 71.48-4.31L71.48-4.31Q71.48-0.75 74.34-0.75L74.34-0.75Q75.38-0.75 76.13-1.31L76.13-1.31Q77.06-2.06 77.02-3.61L77.02-3.61ZM86.86-8.58L83.63-3.47L83.63 0L82.45 0L82.45-3.47L79.22-8.58L80.58-8.58L83.02-4.45L85.50-8.58L86.86-8.58ZM88.08-8.58L89.25-8.58L89.25 0L88.08 0L88.08-8.58Z" transform="translate(-0.5609879032258065, 8.8125)"></path></g></g></g></g></g><defs v-gra="od"></defs></svg>